<svg className="w-6 h-6" fill="currentColor" viewBox="0 0 20 20">
  <path fillRule="evenodd" d="M10 2a1 1 0 011 1v1a1 1 0 11-2 0V3a1 1 0 011-1zm4.22 1.78a1 1 0 011.39 0l.707.707a1 1 0 01-1.39 1.39L15.22 3.78a1 1 0 010-1.39zm2.122 2.122a1 1 0 011.39 0l.707.707a1 1 0 01-1.39 1.39l-.707-.707a1 1 0 010-1.39zm2.122 2.122a1 1 0 011.39 0l.707.707a1 1 0 01-1.39 1.39l-.707-.707a1 1 0 010-1.39zM17 11a1 1 0 100-2h-1a1 1 0 100 2h1zm1.78 2.22a1 1 0 01-1.39 0l-.707-.707a1 1 0 011.39-1.39l.707.707a1 1 0 010 1.39zm-2.122 2.122a1 1 0 01-1.39 0l-.707-.707a1 1 0 011.39-1.39l.707.707a1 1 0 010 1.39zm-2.122 2.122a1 1 0 01-1.39 0l-.707-.707a1 1 0 011.39-1.39l.707.707a1 1 0 010 1.39zM13 17a1 1 0 100 2h1a1 1 0 100-2h-1zm-2.78-1.78a1 1 0 01-1.39 0l-.707-.707a1 1 0 011.39-1.39l.707.707a1 1 0 010 1.39zM9 13a1 1 0 100 2H8a1 1 0 100-2h1zm-.22-7.22a1 1 0 011.39 0l.707.707a1 1 0 01-1.39 1.39L8.78 5.78a1 1 0 010-1.39zM5 3a1 1 0 000 2h1a1 1 0 000-2H5z" clipRule="evenodd" />
</svg>
